# xmcd
#
# Track frame offsets:
#	150
#	11933
#	24536
#	35957
#	49309
#	64342
#	77928
#	95240
#	110872
#	128522
#	144219
#	158626
#	174801
#	184379
#	198410
#
# Disc length: 2801 seconds
#
# Revision: 1
# Processed by: cddbd v1.5.2PL0 Copyright (c) Steve Scherf et al.
# Submitted via: audiograbber 1.83.01
#
DISCID=d90aef0f
DTITLE=Country Sommer - Country Sommer [CD2]
DYEAR=2008
DGENRE=Country
TTITLE0=Vassendgutane - Hytta Mi
TTITLE1=Neil Young - Get Back To The Country
TTITLE2=Willie Nelson - On The Road Again
TTITLE3=Dolly Parton - 9 To 5
TTITLE4=Somebody´s Darling - Thats´s Why I Wear Black
TTITLE5=Highwaymen - Highwayman
TTITLE6=International Tussler Society The - Polka With The Devil
TTITLE7=Waylon Jennings - Will The Wolf Survive
TTITLE8=Roy Lønhøiden - Nå Og Hver Dag
TTITLE9=Kenny Rogers - The Gambler
TTITLE10=Flying Burrito Brothers The - Lazy Days
TTITLE11=Sie Gubba - Fjellrypa
TTITLE12=Brettville - I Should Be Your Man
TTITLE13=Poco - Blue Water
TTITLE14=Johnny Cash - Ring Of Fire
EXTD=
EXTT0=
EXTT1=
EXTT2=
EXTT3=
EXTT4=
EXTT5=
EXTT6=
EXTT7=
EXTT8=
EXTT9=
EXTT10=
EXTT11=
EXTT12=
EXTT13=
EXTT14=
PLAYORDER=
